<svg width="722" height="458" viewBox="0 0 722 458" fill="none" xmlns="http://www.w3.org/2000/svg">
<g filter="url(#filter0_i_47_2)">
<path d="M697 0H25C11.1929 0 0 11.1929 0 25V433C0 446.807 11.1929 458 25 458H697C710.807 458 722 446.807 722 433V25C722 11.1929 710.807 0 697 0Z" fill="url(#paint0_linear_47_2)"/>
</g>
<path fill-rule="evenodd" clip-rule="evenodd" d="M95.3452 319.859C95.3452 319.872 95.3453 319.878 95.3463 319.879C95.3474 319.879 95.3496 319.871 95.354 319.856C95.3731 319.79 95.4331 319.584 95.6221 319.257C95.8687 318.83 96.2717 318.313 96.8653 317.826C98.0224 316.877 99.9786 315.982 103.09 316.211C115.793 317.143 122.736 325.857 122.736 332.161V372.168C122.736 372.581 122.663 372.734 122.642 372.769C122.6 372.794 122.441 372.866 122.028 372.866H114.306C113.893 372.866 113.734 372.794 113.692 372.769C113.671 372.734 113.599 372.581 113.599 372.168V335.238C113.599 332.612 112.315 330.043 110.474 328.159C108.627 326.268 106.04 324.886 103.213 324.886H95.3452V319.859ZM122.647 372.766C122.651 372.762 122.653 372.76 122.654 372.76C122.654 372.76 122.652 372.762 122.647 372.766ZM113.681 372.76C113.681 372.76 113.683 372.762 113.688 372.766C113.683 372.762 113.68 372.76 113.681 372.76ZM103.213 328.245H95.3452V372.168C95.3451 373.221 95.156 374.405 94.2613 375.256C93.3862 376.088 92.2223 376.225 91.2784 376.225H83.4154C82.537 376.225 81.456 376.058 80.5915 375.305C79.6809 374.511 79.3486 373.37 79.3486 372.168V334.819C79.3486 332.736 80.5152 330.295 82.1528 328.43C83.8125 326.54 86.2707 324.886 89.1714 324.886H91.9856V319.851C91.9856 319.113 92.3018 318.288 92.713 317.577C93.1569 316.808 93.8212 315.978 94.7349 315.229C96.5921 313.705 99.4099 312.572 103.336 312.86C117.312 313.886 126.095 323.651 126.095 332.161V372.168C126.095 373.159 125.872 374.257 125.065 375.097C124.246 375.95 123.128 376.225 122.028 376.225H114.306C113.207 376.225 112.088 375.95 111.269 375.097C110.462 374.257 110.239 373.159 110.239 372.168V335.238C110.239 333.679 109.445 331.913 108.071 330.506C106.704 329.107 104.938 328.245 103.213 328.245ZM89.1714 328.245H91.9856V372.168C91.9856 372.506 91.9534 372.704 91.9249 372.808C91.8146 372.837 91.615 372.866 91.2784 372.866H83.4154C82.9884 372.866 82.834 372.791 82.8028 372.774C82.774 372.725 82.7082 372.563 82.7082 372.168V334.819C82.7082 333.824 83.3665 332.139 84.6771 330.647C85.9656 329.179 87.5788 328.245 89.1714 328.245ZM82.8161 372.791C82.8156 372.792 82.8116 372.788 82.8054 372.778C82.8134 372.786 82.8165 372.791 82.8161 372.791ZM163.431 381.121C163.431 381.108 163.431 381.101 163.43 381.101C163.429 381.101 163.427 381.108 163.422 381.124C163.403 381.189 163.343 381.395 163.154 381.723C162.908 382.149 162.505 382.666 161.911 383.153C160.754 384.102 158.798 384.997 155.686 384.769C142.984 383.836 136.041 375.123 136.041 368.819V328.812C136.041 328.399 136.114 328.246 136.135 328.211C136.176 328.186 136.335 328.114 136.748 328.114H144.471C144.884 328.114 145.043 328.186 145.084 328.211C145.105 328.246 145.178 328.399 145.178 328.812V365.741C145.178 368.367 146.461 370.937 148.302 372.821C150.15 374.712 152.737 376.094 155.563 376.094H163.431V381.121ZM136.125 328.218C136.126 328.217 136.128 328.216 136.13 328.214C136.125 328.217 136.123 328.219 136.123 328.219C136.123 328.22 136.124 328.219 136.125 328.218ZM145.096 328.219C145.096 328.22 145.093 328.218 145.089 328.214C145.094 328.217 145.096 328.219 145.096 328.219ZM155.563 372.734H163.431V328.812C163.431 327.759 163.621 326.575 164.515 325.724C165.39 324.892 166.554 324.754 167.498 324.754H175.361C176.239 324.754 177.321 324.921 178.185 325.675C179.096 326.469 179.428 327.609 179.428 328.812V366.161C179.428 368.243 178.261 370.685 176.624 372.55C174.964 374.44 172.506 376.094 169.605 376.094H166.791V381.128C166.791 381.867 166.475 382.691 166.064 383.403C165.62 384.172 164.955 385.002 164.042 385.751C162.184 387.274 159.367 388.408 155.44 388.119C141.464 387.093 132.681 377.328 132.681 368.819V328.812C132.681 327.821 132.904 326.723 133.711 325.883C134.53 325.029 135.649 324.754 136.748 324.754H144.471C145.57 324.754 146.689 325.029 147.508 325.883C148.314 326.723 148.537 327.821 148.537 328.812V365.741C148.537 367.3 149.331 369.067 150.705 370.473C152.073 371.873 153.838 372.734 155.563 372.734ZM169.605 372.734H166.791V328.812C166.791 328.473 166.823 328.276 166.852 328.172C166.962 328.143 167.161 328.114 167.498 328.114H175.361C175.788 328.114 175.943 328.188 175.974 328.206C176.003 328.255 176.068 328.416 176.068 328.812V366.161C176.068 367.156 175.41 368.84 174.099 370.333C172.811 371.8 171.198 372.734 169.605 372.734ZM175.963 328.19C175.961 328.189 175.961 328.188 175.96 328.188C175.96 328.189 175.963 328.194 175.971 328.202C175.967 328.196 175.965 328.192 175.963 328.19Z" fill="#FBF8FC"/>
<path d="M581.889 132.248C607.156 132.248 627.64 111.764 627.64 86.4971C627.64 61.2298 607.156 40.7466 581.889 40.7466C556.622 40.7466 536.138 61.2298 536.138 86.4971C536.138 111.764 556.622 132.248 581.889 132.248Z" fill="#E71924"/>
<path d="M637.647 132.248C662.914 132.248 683.398 111.764 683.398 86.4971C683.398 61.2298 662.914 40.7466 637.647 40.7466C612.38 40.7466 591.896 61.2298 591.896 86.4971C591.896 111.764 612.38 132.248 637.647 132.248Z" fill="#F99F19"/>
<path fill-rule="evenodd" clip-rule="evenodd" d="M609.768 122.595C620.636 114.23 627.64 101.092 627.64 86.3172C627.64 71.5427 620.636 58.404 609.768 50.0396C598.9 58.404 591.897 71.5427 591.897 86.3172C591.897 101.092 598.9 114.23 609.768 122.595Z" fill="#F26520"/>
<path d="M172.279 156.195H86.4971C83.1413 156.195 80.4209 158.915 80.4209 162.271V219.459C80.4209 222.815 83.1413 225.536 86.4971 225.536H172.279C175.635 225.536 178.356 222.815 178.356 219.459V162.271C178.356 158.915 175.635 156.195 172.279 156.195Z" fill="url(#paint1_linear_47_2)" stroke="#211F21" stroke-width="2.14455"/>
<path d="M80.7783 178.713H110.087" stroke="#211F21" stroke-width="2" stroke-linecap="round"/>
<path d="M80.7783 200.873H109.445" stroke="#211F21" stroke-width="2" stroke-linecap="round"/>
<path d="M149.404 200.873H177.998" stroke="#211F21" stroke-width="2" stroke-linecap="round"/>
<path d="M148.975 179.428H177.998" stroke="#211F21" stroke-width="2" stroke-linecap="round"/>
<path d="M129.388 168.706C130.572 168.706 131.533 167.745 131.533 166.561C131.533 165.377 130.572 164.417 129.388 164.417C128.204 164.417 127.243 165.377 127.243 166.561C127.243 167.745 128.204 168.706 129.388 168.706Z" fill="#211F21"/>
<path d="M231.053 205.824C236.325 192.59 236.926 185.119 231.053 171.645C230.43 170.215 231.053 169.024 231.768 168.786C232.483 168.547 233.589 168.786 234.27 170.215C241.188 184.73 240.767 192.87 234.627 207.387C233.912 208.817 232.575 208.998 231.768 208.46C230.824 207.831 230.608 206.941 231.053 205.824Z" fill="#FBF8FC"/>
<path d="M223.547 172.717C222.832 173.075 222.375 174.43 223.19 175.934C227.999 185.94 227.801 191.662 223.19 202.026C222.686 203.071 222.998 204.226 223.905 204.528C224.977 204.886 225.913 204.125 226.406 203.098C231.701 192.084 231.84 185.756 226.406 174.147C225.905 173.075 224.619 172.181 223.547 172.717Z" fill="#FBF8FC"/>
<path d="M216.399 177.364C215.326 177.721 215.136 178.908 215.684 180.223C218.53 187.063 218.979 190.898 215.684 197.737C215.041 198.929 214.83 200.193 216.041 200.596C217.252 201 218.126 200.363 218.543 199.524C222.766 191.149 221.82 186.454 218.543 178.079C218.263 177.364 217.471 177.006 216.399 177.364Z" fill="#FBF8FC"/>
<path d="M208.893 180.223C207.82 180.938 207.668 182.022 208.535 183.797C210.344 187.564 210.303 189.68 208.535 193.448C207.713 195.11 207.463 197.022 208.893 197.38C210.322 197.737 210.957 197.229 211.752 195.235C213.578 189.987 213.756 187.02 211.752 181.653C211.291 180.261 210.322 179.508 208.893 180.223Z" fill="#FBF8FC"/>
<path d="M145.115 170.849C142.372 161.508 137.251 156.91 129.03 156.91C119.023 156.91 116.194 164.53 110.087 178.355C113.998 187.507 114.039 192.437 110.087 200.873C116.494 219.254 121.24 224.915 129.388 224.821C140.111 224.821 143.163 215.733 149.046 200.873C145.952 192.497 145.622 187.875 148.5 179.5" stroke="#211F21" stroke-width="2" stroke-linecap="round"/>
<path d="M227.672 350.868V352.785H218.053V350.868H227.672ZM218.419 343.227V361H216.063V343.227H218.419ZM229.723 343.227V361H227.379V343.227H229.723ZM245.201 359.083V361H235.79V359.083H245.201ZM236.266 343.227V361H233.91V343.227H236.266ZM243.956 350.868V352.785H235.79V350.868H243.956ZM245.079 343.227V345.155H235.79V343.227H245.079ZM261.791 343.227V361H259.422L250.475 347.292V361H248.119V343.227H250.475L259.459 356.972V343.227H261.791ZM265.965 343.227H271.849C273.184 343.227 274.311 343.43 275.23 343.837C276.158 344.244 276.862 344.846 277.342 345.644C277.831 346.433 278.075 347.405 278.075 348.561C278.075 349.375 277.908 350.119 277.574 350.795C277.249 351.462 276.777 352.032 276.158 352.504C275.548 352.968 274.815 353.314 273.961 353.542L273.302 353.798H267.772L267.748 351.881H271.922C272.769 351.881 273.473 351.735 274.034 351.442C274.596 351.141 275.019 350.738 275.304 350.233C275.589 349.729 275.731 349.171 275.731 348.561C275.731 347.877 275.597 347.279 275.328 346.767C275.06 346.254 274.636 345.859 274.059 345.583C273.489 345.298 272.752 345.155 271.849 345.155H268.321V361H265.965V343.227ZM276.354 361L272.032 352.943L274.486 352.931L278.868 360.854V361H276.354ZM283.897 343.227V361H281.542V343.227H283.897ZM297.301 358.961L301.817 362.538L300.23 364.003L295.787 360.475L297.301 358.961ZM301.756 351.552V352.675C301.756 354.009 301.59 355.206 301.256 356.264C300.922 357.322 300.442 358.221 299.815 358.961C299.189 359.702 298.436 360.268 297.557 360.658C296.686 361.049 295.71 361.244 294.627 361.244C293.578 361.244 292.613 361.049 291.734 360.658C290.864 360.268 290.107 359.702 289.464 358.961C288.829 358.221 288.337 357.322 287.987 356.264C287.637 355.206 287.462 354.009 287.462 352.675V351.552C287.462 350.217 287.633 349.025 287.975 347.975C288.325 346.917 288.817 346.018 289.452 345.277C290.086 344.529 290.839 343.959 291.71 343.568C292.589 343.178 293.553 342.982 294.603 342.982C295.685 342.982 296.666 343.178 297.545 343.568C298.424 343.959 299.177 344.529 299.803 345.277C300.43 346.018 300.91 346.917 301.244 347.975C301.585 349.025 301.756 350.217 301.756 351.552ZM299.425 352.675V351.527C299.425 350.469 299.315 349.534 299.095 348.72C298.884 347.906 298.57 347.222 298.155 346.669C297.74 346.116 297.236 345.696 296.642 345.412C296.048 345.127 295.368 344.984 294.603 344.984C293.879 344.984 293.22 345.127 292.625 345.412C292.04 345.696 291.535 346.116 291.112 346.669C290.689 347.222 290.363 347.906 290.135 348.72C289.907 349.534 289.793 350.469 289.793 351.527V352.675C289.793 353.741 289.907 354.685 290.135 355.507C290.363 356.321 290.689 357.008 291.112 357.57C291.543 358.123 292.056 358.542 292.65 358.827C293.244 359.112 293.903 359.254 294.627 359.254C295.392 359.254 296.072 359.112 296.666 358.827C297.26 358.542 297.761 358.123 298.167 357.57C298.583 357.008 298.896 356.321 299.107 355.507C299.319 354.685 299.425 353.741 299.425 352.675ZM315.562 343.227H317.906V355.25C317.906 356.585 317.609 357.696 317.015 358.583C316.421 359.47 315.632 360.137 314.647 360.585C313.67 361.024 312.608 361.244 311.461 361.244C310.257 361.244 309.166 361.024 308.189 360.585C307.221 360.137 306.452 359.47 305.882 358.583C305.321 357.696 305.04 356.585 305.04 355.25V343.227H307.372V355.25C307.372 356.178 307.542 356.943 307.884 357.545C308.226 358.148 308.702 358.595 309.312 358.888C309.931 359.181 310.647 359.328 311.461 359.328C312.283 359.328 312.999 359.181 313.609 358.888C314.228 358.595 314.708 358.148 315.05 357.545C315.392 356.943 315.562 356.178 315.562 355.25V343.227ZM332.896 359.083V361H323.485V359.083H332.896ZM323.961 343.227V361H321.605V343.227H323.961ZM331.651 350.868V352.785H323.485V350.868H331.651ZM332.774 343.227V345.155H323.485V343.227H332.774ZM342.015 343.227H347.899C349.234 343.227 350.361 343.43 351.28 343.837C352.208 344.244 352.912 344.846 353.392 345.644C353.88 346.433 354.125 347.405 354.125 348.561C354.125 349.375 353.958 350.119 353.624 350.795C353.299 351.462 352.826 352.032 352.208 352.504C351.598 352.968 350.865 353.314 350.011 353.542L349.352 353.798H343.822L343.797 351.881H347.972C348.819 351.881 349.522 351.735 350.084 351.442C350.646 351.141 351.069 350.738 351.354 350.233C351.638 349.729 351.781 349.171 351.781 348.561C351.781 347.877 351.646 347.279 351.378 346.767C351.109 346.254 350.686 345.859 350.108 345.583C349.539 345.298 348.802 345.155 347.899 345.155H344.371V361H342.015V343.227ZM352.403 361L348.082 352.943L350.536 352.931L354.918 360.854V361H352.403ZM377.306 351.552V352.675C377.306 354.009 377.139 355.206 376.805 356.264C376.472 357.322 375.991 358.221 375.365 358.961C374.738 359.702 373.985 360.268 373.106 360.658C372.236 361.049 371.259 361.244 370.177 361.244C369.127 361.244 368.163 361.049 367.284 360.658C366.413 360.268 365.656 359.702 365.013 358.961C364.378 358.221 363.886 357.322 363.536 356.264C363.186 355.206 363.011 354.009 363.011 352.675V351.552C363.011 350.217 363.182 349.025 363.524 347.975C363.874 346.917 364.366 346.018 365.001 345.277C365.636 344.529 366.389 343.959 367.259 343.568C368.138 343.178 369.103 342.982 370.152 342.982C371.235 342.982 372.211 343.178 373.082 343.568C373.961 343.959 374.714 344.529 375.34 345.277C375.975 346.018 376.459 346.917 376.793 347.975C377.135 349.025 377.306 350.217 377.306 351.552ZM374.974 352.675V351.527C374.974 350.469 374.864 349.534 374.645 348.72C374.433 347.906 374.12 347.222 373.705 346.669C373.29 346.116 372.781 345.696 372.179 345.412C371.585 345.127 370.909 344.984 370.152 344.984C369.42 344.984 368.757 345.127 368.163 345.412C367.577 345.696 367.072 346.116 366.649 346.669C366.234 347.222 365.912 347.906 365.685 348.72C365.457 349.534 365.343 350.469 365.343 351.527V352.675C365.343 353.741 365.457 354.685 365.685 355.507C365.912 356.321 366.238 357.008 366.661 357.57C367.092 358.123 367.601 358.542 368.187 358.827C368.781 359.112 369.444 359.254 370.177 359.254C370.942 359.254 371.621 359.112 372.215 358.827C372.809 358.542 373.31 358.123 373.717 357.57C374.132 357.008 374.445 356.321 374.657 355.507C374.868 354.685 374.974 353.741 374.974 352.675ZM391.612 359.083V361H382.726V359.083H391.612ZM383.189 343.227V361H380.833V343.227H383.189ZM396.837 343.227V361H394.481V343.227H396.837ZM406.859 358.302L412.096 343.227H414.647L408.067 361H406.249L406.859 358.302ZM401.964 343.227L407.152 358.302L407.799 361H405.98L399.413 343.227H401.964ZM428.331 359.083V361H418.919V359.083H428.331ZM419.396 343.227V361H417.04V343.227H419.396ZM427.086 350.868V352.785H418.919V350.868H427.086ZM428.209 343.227V345.155H418.919V343.227H428.209ZM433.775 343.227V361H431.419V343.227H433.775ZM438.06 343.227H443.944C445.278 343.227 446.406 343.43 447.325 343.837C448.253 344.244 448.957 344.846 449.437 345.644C449.925 346.433 450.169 347.405 450.169 348.561C450.169 349.375 450.003 350.119 449.669 350.795C449.343 351.462 448.871 352.032 448.253 352.504C447.643 352.968 446.91 353.314 446.056 353.542L445.396 353.798H439.867L439.842 351.881H444.017C444.863 351.881 445.567 351.735 446.129 351.442C446.69 351.141 447.114 350.738 447.398 350.233C447.683 349.729 447.826 349.171 447.826 348.561C447.826 347.877 447.691 347.279 447.423 346.767C447.154 346.254 446.731 345.859 446.153 345.583C445.584 345.298 444.847 345.155 443.944 345.155H440.416V361H438.06V343.227ZM448.448 361L444.127 352.943L446.581 352.931L450.963 360.854V361H448.448ZM460.045 344.801L454.161 361H451.756L458.531 343.227H460.082L460.045 344.801ZM464.977 361L459.081 344.801L459.044 343.227H460.594L467.394 361H464.977ZM464.671 354.42V356.349H454.686V354.42H464.671Z" fill="white"/>
<defs>
<filter id="filter0_i_47_2" x="0" y="0" width="725" height="461" filterUnits="userSpaceOnUse" color-interpolation-filters="sRGB">
<feFlood flood-opacity="0" result="BackgroundImageFix"/>
<feBlend mode="normal" in="SourceGraphic" in2="BackgroundImageFix" result="shape"/>
<feColorMatrix in="SourceAlpha" type="matrix" values="0 0 0 0 0 0 0 0 0 0 0 0 0 0 0 0 0 0 127 0" result="hardAlpha"/>
<feOffset dx="3" dy="3"/>
<feGaussianBlur stdDeviation="3"/>
<feComposite in2="hardAlpha" operator="arithmetic" k2="-1" k3="1"/>
<feColorMatrix type="matrix" values="0 0 0 0 1 0 0 0 0 1 0 0 0 0 1 0 0 0 0.25 0"/>
<feBlend mode="normal" in2="shape" result="effect1_innerShadow_47_2"/>
</filter>
<linearGradient id="paint0_linear_47_2" x1="610.09" y1="61.83" x2="354.096" y2="526.995" gradientUnits="userSpaceOnUse">
<stop stop-color="#A950C4"/>
<stop offset="1" stop-color="#82269E"/>
</linearGradient>
<linearGradient id="paint1_linear_47_2" x1="171" y1="165" x2="87" y2="221" gradientUnits="userSpaceOnUse">
<stop stop-color="#F4F4F4"/>
<stop offset="1" stop-color="#D6D6D6"/>
</linearGradient>
</defs>
</svg>
